#N canvas 683 186 558 409 12;
#X floatatom 79 134 5 0 0 0 - - - 0;
#X floatatom 151 155 5 0 0 0 - - - 0;
#X floatatom 200 133 5 0 0 0 - - - 0;
#X obj 287 411 s led @hv_param;
#X obj 311 329 tgl 15 0 empty empty empty 17 7 0 10 #fcfcfc #000000 #000000 0 1;
#X obj 133 69 notein;
#X obj 111 209 mtof;
#X obj 93 241 osc~;
#X obj 104 413 dac~;
#X obj 101 308 *~, f 5;
#X msg 173 248 \$1 50;
#X obj 183 307 line~;
#X connect 1 0 10 0;
#X connect 4 0 3 0;
#X connect 5 0 0 0;
#X connect 5 0 6 0;
#X connect 5 1 1 0;
#X connect 5 2 2 0;
#X connect 6 0 7 0;
#X connect 7 0 9 0;
#X connect 9 0 8 1;
#X connect 9 0 8 0;
#X connect 10 0 11 0;
#X connect 10 0 4 0;
#X connect 11 0 9 1;
