#N canvas 1017 214 450 300 12;
#X floatatom 79 111 5 0 0 0 - - - 0;
#X floatatom 142 112 5 0 0 0 - - - 0;
#X floatatom 200 110 5 0 0 0 - - - 0;
#X obj 328 218 s led @hv_param;
#X obj 337 146 metro 500;
#X obj 346 94 tgl 15 0 empty empty empty 17 7 0 10 #fcfcfc #000000 #000000 0 1;
#X obj 345 38 loadbang;
#X obj 296 193 tgl 15 0 empty empty empty 17 7 0 10 #fcfcfc #000000 #000000 0 1;
#X obj 133 46 notein;
#X obj 111 186 mtof;
#X obj 79 249 sig~;
#X obj 200 310 osc~;
#X obj 205 421 dac~;
#X connect 1 0 7 0;
#X connect 5 0 4 0;
#X connect 6 0 5 0;
#X connect 7 0 3 0;
#X connect 8 0 0 0;
#X connect 8 0 9 0;
#X connect 8 1 1 0;
#X connect 8 2 2 0;
#X connect 9 0 10 0;
#X connect 9 0 11 0;
#X connect 11 0 12 0;
#X connect 11 0 12 1;
